<svg width="512" height="512" xmlns="http://www.w3.org/2000/svg" version="1.1" enable-background="new 0 0 512 512" xml:space="preserve">
 <metadata id="metadata3390">image/svg+xml</metadata>

 <g>
  <title>Layer 1</title>
  <path transform="rotate(89.8643 256 256)" fill="#222222" d="m256.4,25.8l-200,115.5l-0.4,230.2l199.6,114.7l200,-115.5l0.4,-230.2l-199.6,-114.7zm92.6,328.8l-18.4,10.7l-18.6,-11l0,0l-112,-142.3l0,142.6l-18.4,10.7l-18.6,-11l0,-197l18.5,-10.6l18.5,10.8l0,0l112,144.5l0,-144.6l18.5,-10.6l18.5,10.8l0,197z" id="path3384"/>
  <path d="m-137,44c137,-44 137,-44 137,-44l-137,44l0,0l0,0" id="svg_2" fill="none"/>
 </g>
</svg>